<?xml version="1.0" encoding="UTF-8" ?>
<!DOCTYPE svg PUBLIC "-//W3C//DTD SVG 1.1//EN" "http://www.w3.org/Graphics/SVG/1.1/DTD/svg11.dtd">
<svg width="240pt" height="240pt" viewBox="0 0 240 240" version="1.1" xmlns="http://www.w3.org/2000/svg">
<g id="#ffffffff">
<path fill="#ffffff" opacity="1.00" d=" M 20.00 29.97 C 39.04 30.58 58.12 32.34 76.74 36.50 C 91.85 39.90 106.72 45.00 120.00 53.08 C 132.65 45.34 146.78 40.38 161.16 36.99 C 180.44 32.46 200.24 30.61 220.00 29.97 C 220.03 83.31 219.95 136.65 220.04 189.99 C 223.34 189.57 226.64 189.19 229.95 188.86 C 230.06 142.58 229.97 96.29 230.00 50.00 C 233.33 50.00 236.66 50.00 240.00 50.00 L 240.00 200.00 C 209.64 200.02 179.29 199.97 148.93 200.02 C 143.54 199.95 138.40 201.99 134.02 205.04 C 129.40 208.32 123.83 210.65 118.04 209.95 C 112.52 209.69 107.98 206.28 103.46 203.50 C 99.46 201.01 94.73 199.93 90.05 200.00 C 60.03 200.00 30.02 200.00 0.00 200.00 L 0.00 50.00 C 3.33 50.00 6.67 50.00 10.00 50.00 C 10.03 96.29 9.94 142.58 10.05 188.87 C 13.36 189.19 16.66 189.57 19.96 189.99 C 20.05 136.65 19.97 83.31 20.00 29.97 M 40.06 51.08 C 39.98 91.27 39.92 131.47 40.09 171.66 C 63.92 173.21 87.67 177.67 109.98 186.32 C 109.98 147.62 110.07 108.91 109.93 70.21 C 88.87 57.61 64.16 53.30 40.06 51.08 M 130.07 70.21 C 129.92 108.91 130.02 147.62 130.02 186.33 C 152.33 177.67 176.08 173.21 199.91 171.66 C 200.08 131.47 200.02 91.27 199.94 51.08 C 175.84 53.30 151.13 57.61 130.07 70.21 Z" />
</g>
</svg>
