<?xml version="1.0" encoding="UTF-8" ?>
<!DOCTYPE svg PUBLIC "-//W3C//DTD SVG 1.1//EN" "http://www.w3.org/Graphics/SVG/1.1/DTD/svg11.dtd">
<svg width="240pt" height="240pt" viewBox="0 0 240 240" version="1.1" xmlns="http://www.w3.org/2000/svg">
<g id="#ffffffff">
<path fill="#ffffff" opacity="1.00" d=" M 10.00 59.97 C 46.67 39.99 83.30 19.95 119.99 0.01 C 156.70 20.18 193.39 40.39 230.03 60.69 C 229.96 98.80 230.02 136.90 230.00 175.01 C 229.95 177.19 230.17 179.40 229.81 181.57 C 193.10 200.84 156.65 220.62 119.99 239.99 C 83.30 220.49 46.66 200.89 9.99 181.33 C 10.01 140.88 9.99 100.43 10.00 59.97 M 41.39 65.70 C 67.61 80.00 93.82 94.31 120.04 108.60 C 146.38 94.57 172.71 80.51 199.04 66.46 C 172.68 51.92 146.32 37.38 119.96 22.85 C 93.76 37.12 67.57 51.41 41.39 65.70 M 30.00 82.34 C 29.99 111.31 30.01 140.29 29.99 169.27 C 56.65 183.52 83.33 197.73 110.00 211.97 C 110.00 183.30 110.00 154.64 110.00 125.97 C 83.34 111.41 56.67 96.88 30.00 82.34 M 130.00 126.03 C 130.00 154.68 130.00 183.32 130.00 211.96 C 156.67 197.72 183.38 183.54 210.02 169.24 C 209.97 140.61 210.02 111.98 210.00 83.35 C 183.33 97.57 156.67 111.80 130.00 126.03 Z" />
</g>
</svg>
