<?xml version="1.0" encoding="UTF-8" ?>
<!DOCTYPE svg PUBLIC "-//W3C//DTD SVG 1.1//EN" "http://www.w3.org/Graphics/SVG/1.1/DTD/svg11.dtd">
<svg width="240pt" height="240pt" viewBox="0 0 240 240" version="1.1" xmlns="http://www.w3.org/2000/svg">
<g id="#ffffffff">
<path fill="#ffffff" opacity="1.00" d=" M 89.56 200.00 C 102.93 146.66 116.29 93.32 129.68 39.99 C 136.61 40.01 143.55 39.99 150.49 40.00 C 137.11 93.34 123.74 146.68 110.32 200.01 C 103.40 199.99 96.48 200.01 89.56 200.00 Z" />
<path fill="#ffffff" opacity="1.00" d=" M 0.00 109.32 C 26.67 96.17 53.33 82.99 80.00 69.84 C 80.01 77.27 80.00 84.69 80.00 92.12 C 61.23 101.43 42.45 110.69 23.69 120.00 C 42.45 129.35 61.34 138.47 80.05 147.91 C 79.93 155.33 80.04 162.74 80.00 170.16 C 53.33 156.99 26.64 143.87 0.00 130.66 L 0.00 109.32 Z" />
<path fill="#ffffff" opacity="1.00" d=" M 160.00 69.84 C 186.67 83.00 213.33 96.17 240.00 109.32 L 240.00 130.66 C 213.36 143.87 186.67 156.99 160.00 170.16 C 159.99 162.71 160.01 155.27 159.99 147.82 C 178.75 138.52 197.55 129.30 216.31 120.00 C 197.55 110.69 178.76 101.43 160.00 92.12 C 160.00 84.69 159.99 77.27 160.00 69.84 Z" />
</g>
</svg>
