<?xml version="1.0" encoding="UTF-8" ?>
<!DOCTYPE svg PUBLIC "-//W3C//DTD SVG 1.1//EN" "http://www.w3.org/Graphics/SVG/1.1/DTD/svg11.dtd">
<svg width="240pt" height="240pt" viewBox="0 0 240 240" version="1.1" xmlns="http://www.w3.org/2000/svg">
<g id="#ffffffff">
<path fill="#ffffff" opacity="1.00" d=" M 115.51 0.00 L 124.37 0.00 C 154.37 1.04 183.75 13.81 204.88 35.14 C 226.17 56.24 238.91 85.55 240.00 115.49 L 240.00 124.44 C 239.00 151.57 228.55 178.24 210.66 198.68 C 197.47 213.90 180.39 225.70 161.49 232.68 C 158.95 233.61 156.15 234.72 153.45 233.72 C 151.12 232.95 149.91 230.43 150.01 228.09 C 149.94 216.71 150.08 205.32 149.96 193.94 C 149.82 186.29 147.50 178.32 141.84 172.91 C 156.66 171.30 172.39 167.22 182.91 155.95 C 193.42 144.81 196.56 128.84 196.53 113.99 C 196.77 102.11 192.30 90.30 184.25 81.56 C 188.05 71.24 186.94 59.73 183.01 49.63 C 170.83 48.93 159.94 55.77 150.05 62.07 C 130.49 56.75 109.53 56.75 89.96 62.07 C 80.08 55.75 69.17 48.94 56.99 49.63 C 53.04 59.73 51.98 71.25 55.75 81.57 C 47.71 90.31 43.22 102.12 43.46 114.00 C 43.39 129.49 46.94 146.28 58.50 157.40 C 69.00 167.62 83.87 171.41 98.03 173.01 C 93.58 177.28 91.35 183.23 90.42 189.22 C 83.93 191.90 76.55 193.36 69.70 191.22 C 63.86 189.47 59.14 185.09 56.05 179.93 C 52.55 173.93 46.98 168.73 40.04 167.18 C 37.10 166.53 33.44 166.37 31.31 168.91 C 33.46 173.02 38.16 174.49 41.17 177.78 C 44.96 181.66 47.64 186.48 49.65 191.48 C 52.34 198.37 58.60 203.42 65.56 205.57 C 73.48 208.08 81.98 207.40 90.00 205.76 C 89.93 213.50 90.12 221.25 89.93 228.99 C 89.90 232.89 85.43 235.05 82.03 233.82 C 53.46 224.54 28.91 203.80 14.59 177.44 C 5.68 161.24 0.78 142.94 0.00 124.48 L 0.00 115.60 C 1.06 85.61 13.81 56.25 35.14 35.13 C 56.24 13.83 85.56 1.09 115.51 0.00 Z" />
</g>
</svg>
