<?xml version="1.0" encoding="UTF-8" ?>
<!DOCTYPE svg PUBLIC "-//W3C//DTD SVG 1.1//EN" "http://www.w3.org/Graphics/SVG/1.1/DTD/svg11.dtd">
<svg width="240pt" height="240pt" viewBox="0 0 240 240" version="1.1" xmlns="http://www.w3.org/2000/svg">
<g id="#ffffffff">
<path fill="#ffffff" opacity="1.00" d=" M 0.73 120.60 C 40.50 83.75 80.23 46.84 120.00 9.98 C 146.62 34.68 173.22 59.42 199.83 84.13 C 213.18 96.68 226.84 108.93 240.00 121.67 L 240.00 122.45 L 239.80 121.73 C 235.36 126.54 230.87 131.30 226.46 136.14 C 190.87 103.32 155.51 70.25 120.00 37.35 C 84.54 70.23 49.08 103.11 13.64 136.01 C 9.03 131.25 4.69 126.15 0.00 121.55 L 0.00 120.47 C 0.18 120.50 0.54 120.57 0.73 120.60 Z" />
<path fill="#ffffff" opacity="1.00" d=" M 30.00 148.25 C 60.00 120.33 89.99 92.41 120.00 64.51 C 150.01 92.41 180.00 120.33 210.00 148.25 C 210.00 178.83 210.00 209.42 210.00 240.00 L 30.00 240.00 C 30.00 209.42 30.00 178.83 30.00 148.25 M 49.99 157.07 C 50.02 178.05 49.99 199.02 50.00 220.00 C 96.67 220.00 143.33 220.00 190.00 220.00 C 190.01 199.02 189.98 178.05 190.01 157.07 C 166.69 135.32 143.36 113.59 119.97 91.91 C 96.66 113.64 73.29 135.31 49.99 157.07 Z" />
<path fill="#ffffff" opacity="1.00" d=" M 100.00 150.00 C 113.33 150.00 126.67 150.00 140.00 150.00 C 140.00 170.00 140.00 190.00 140.00 210.00 C 126.67 210.00 113.33 210.00 100.00 210.00 C 100.00 190.00 100.00 170.00 100.00 150.00 Z" />
</g>
</svg>
