<?xml version="1.0" encoding="UTF-8" ?>
<!DOCTYPE svg PUBLIC "-//W3C//DTD SVG 1.1//EN" "http://www.w3.org/Graphics/SVG/1.1/DTD/svg11.dtd">
<svg width="240pt" height="240pt" viewBox="0 0 240 240" version="1.1" xmlns="http://www.w3.org/2000/svg">
<g id="#ffffffff">
<path fill="#ffffff" opacity="1.00" d=" M 125.27 44.26 C 133.77 31.42 148.58 23.01 164.00 22.50 C 178.20 21.77 192.45 27.66 202.17 38.00 C 213.20 35.90 223.66 31.59 233.45 26.18 C 229.72 37.40 221.97 47.16 211.87 53.33 C 221.49 51.95 231.29 49.76 240.00 45.28 L 240.00 46.69 C 238.99 47.48 238.05 48.35 237.31 49.40 C 231.24 57.72 223.79 65.00 215.48 71.08 C 216.81 103.04 206.82 135.23 188.12 161.13 C 171.56 184.23 147.61 202.03 120.49 210.67 C 94.10 219.07 65.25 219.89 38.51 212.59 C 24.90 208.89 11.92 203.01 0.00 195.48 L 0.00 195.44 C 25.73 198.49 52.41 191.06 72.83 175.11 C 52.26 174.85 32.93 160.49 26.85 140.83 C 34.16 142.12 41.74 141.95 48.93 140.01 C 38.98 137.86 29.67 132.72 22.78 125.20 C 14.22 116.06 9.36 103.60 9.56 91.07 C 16.40 94.75 24.02 96.93 31.78 97.24 C 23.66 91.62 17.08 83.70 13.49 74.46 C 7.94 60.63 9.07 44.28 16.72 31.46 C 41.27 61.89 79.03 81.14 118.12 82.92 C 115.08 69.77 117.63 55.43 125.27 44.26 Z" />
</g>
</svg>
